<?xml version="1.0" encoding="UTF-8"?>
<svg xmlns="http://www.w3.org/2000/svg" xmlns:xlink="http://www.w3.org/1999/xlink" width="261px" height="200px" viewBox="0 0 260 200" version="1.1">
<g id="surface1">
<path style=" stroke:none;fill-rule:nonzero;fill:#fff;fill-opacity:1;" d="M 19.351562 118.011719 L 30.523438 148.582031 L 22.414062 148.582031 L 20.972656 143.695312 L 9.800781 143.695312 L 8.355469 148.582031 L 0.25 148.582031 L 11.601562 118.011719 Z M 15.207031 125.425781 C 14.84375 127.054688 14.304688 128.683594 13.945312 130.128906 C 13.222656 132.480469 12.140625 136.097656 11.421875 138.269531 L 19.171875 138.269531 L 15.203125 125.425781 Z M 38.8125 128.320312 C 40.253906 127.054688 41.878906 126.148438 45.300781 125.789062 L 45.300781 131.757812 L 43.136719 132.121094 C 39.894531 132.664062 38.992188 133.207031 38.992188 136.101562 L 38.992188 148.941406 L 32.324219 148.941406 L 32.324219 125.96875 L 38.8125 125.96875 Z M 47.644531 118.011719 L 54.128906 118.011719 L 54.128906 123.253906 L 47.644531 123.253906 Z M 47.644531 125.96875 L 54.128906 125.96875 L 54.128906 148.761719 L 47.644531 148.761719 Z M 47.644531 125.96875 "/>
<path style=" stroke:none;fill-rule:nonzero;fill:#fff;fill-opacity:1;" d="M 58.277344 125.96875 L 77.558594 125.96875 L 77.558594 131.035156 L 65.484375 143.335938 L 77.558594 143.335938 L 77.558594 148.582031 L 57.015625 148.582031 L 57.015625 143.515625 L 69.269531 131.035156 L 58.457031 131.035156 L 58.457031 125.96875 Z M 58.277344 125.96875 "/>
<path style=" stroke:none;fill-rule:nonzero;fill:#fff;fill-opacity:1;" d="M 103.148438 137.367188 C 103.148438 143.152344 99.90625 149.304688 91.074219 149.304688 C 84.765625 149.304688 79 145.6875 79 137.367188 C 79 130.492188 83.324219 124.882812 91.976562 125.425781 C 100.984375 125.789062 103.148438 133.207031 103.148438 137.367188 Z M 86.570312 132.84375 C 85.667969 134.109375 85.488281 135.738281 85.488281 137.183594 C 85.488281 140.800781 87.289062 143.878906 90.894531 143.878906 C 94.5 143.878906 96.300781 140.984375 96.300781 137.367188 C 96.300781 134.832031 95.757812 132.84375 94.5 131.757812 C 93.054688 130.492188 91.613281 130.492188 90.535156 130.492188 C 88.730469 130.851562 87.46875 131.394531 86.570312 132.84375 Z M 111.980469 128.140625 C 112.699219 127.417969 113.058594 126.875 114.140625 126.332031 C 115.222656 125.96875 116.664062 125.425781 118.285156 125.425781 C 119.546875 125.425781 121.167969 125.605469 122.25 126.332031 C 124.59375 127.597656 125.316406 129.585938 125.316406 133.207031 L 125.316406 148.761719 L 118.644531 148.761719 L 118.644531 135.917969 C 118.644531 133.929688 118.644531 133.207031 118.285156 132.480469 C 117.746094 131.214844 116.664062 130.671875 115.222656 130.671875 C 111.796875 130.671875 111.796875 133.566406 111.796875 136.28125 L 111.796875 148.582031 L 105.128906 148.582031 L 105.128906 126.148438 L 111.796875 126.148438 L 111.976562 128.140625 Z M 128.738281 132.480469 C 128.917969 130.851562 129.097656 129.042969 131.082031 127.417969 C 133.242188 125.789062 135.765625 125.425781 138.46875 125.425781 C 141.171875 125.425781 148.019531 126.148438 148.019531 131.9375 L 148.019531 145.144531 C 148.019531 147.496094 148.203125 147.855469 148.742188 148.761719 L 142.253906 148.761719 L 142.253906 146.589844 C 140.632812 147.855469 138.648438 149.304688 135.40625 149.304688 C 130.179688 149.304688 128.019531 145.503906 128.019531 142.429688 C 128.019531 138.8125 130.902344 136.640625 132.703125 135.917969 C 134.503906 135.195312 138.832031 134.289062 141.535156 133.75 L 141.535156 132.480469 C 141.535156 131.394531 141.351562 129.769531 139.011719 129.769531 C 136.128906 129.769531 135.765625 131.578125 135.585938 132.480469 Z M 137.027344 139.355469 C 135.945312 139.71875 134.144531 140.441406 134.144531 142.25 C 134.144531 143.335938 135.046875 144.601562 136.667969 144.601562 C 137.570312 144.601562 138.289062 144.238281 139.011719 143.878906 C 141.171875 142.429688 141.351562 140.441406 141.351562 138.089844 Z M 162.617188 139.535156 C 163.339844 140.441406 164.058594 141.164062 165.5 141.886719 C 167.484375 142.972656 169.648438 143.335938 171.449219 143.335938 C 174.511719 143.335938 177.035156 141.886719 177.035156 139.71875 C 177.035156 137.367188 173.972656 136.824219 171.628906 136.640625 C 170.007812 136.460938 168.203125 136.28125 166.582031 135.917969 C 164.78125 135.558594 158.292969 134.109375 158.292969 127.597656 C 158.292969 119.636719 165.320312 117.285156 170.546875 117.285156 C 177.578125 117.285156 181.359375 120.722656 184.0625 123.074219 L 178.476562 127.054688 C 177.574219 126.148438 176.675781 125.246094 175.414062 124.523438 C 174.332031 123.980469 172.351562 123.257812 170.367188 123.257812 C 167.304688 123.257812 165.863281 125.066406 165.863281 126.511719 C 165.863281 128.863281 168.386719 129.226562 169.828125 129.40625 C 173.070312 129.769531 177.394531 130.671875 179.199219 131.214844 C 182.621094 132.480469 184.425781 135.195312 184.425781 138.8125 C 184.425781 140.984375 183.523438 143.515625 182.082031 145.324219 C 179.378906 148.582031 174.875 149.484375 170.546875 149.484375 C 161.898438 149.484375 158.472656 145.503906 156.671875 143.335938 Z M 188.027344 119.457031 L 194.695312 119.457031 L 194.695312 126.511719 L 199.019531 126.511719 L 199.019531 130.671875 L 194.695312 130.671875 L 194.695312 140.800781 C 194.695312 142.25 194.695312 143.335938 196.496094 143.335938 L 198.839844 143.335938 L 198.839844 148.582031 C 197.398438 148.761719 196.496094 148.941406 195.417969 148.941406 C 193.074219 148.941406 190.550781 148.761719 189.109375 146.773438 C 188.207031 145.503906 188.207031 143.875 188.207031 141.707031 L 188.207031 130.851562 L 184.964844 130.851562 L 184.964844 126.691406 L 188.207031 126.691406 L 188.207031 119.457031 Z M 201.003906 132.480469 C 201.183594 130.851562 201.363281 129.042969 203.347656 127.417969 C 205.507812 125.789062 208.03125 125.425781 210.734375 125.425781 C 213.4375 125.425781 220.285156 126.148438 220.285156 131.9375 L 220.285156 145.144531 C 220.285156 147.496094 220.464844 147.855469 221.007812 148.761719 L 214.519531 148.761719 L 214.519531 146.589844 C 212.898438 147.855469 210.914062 149.304688 207.671875 149.304688 C 202.445312 149.304688 200.28125 145.503906 200.28125 142.429688 C 200.28125 138.8125 203.164062 136.640625 204.96875 135.917969 C 206.769531 135.195312 211.09375 134.289062 213.796875 133.75 L 213.796875 132.480469 C 213.796875 131.394531 213.617188 129.769531 211.277344 129.769531 C 208.390625 129.769531 208.03125 131.578125 207.851562 132.480469 Z M 209.472656 139.355469 C 208.390625 139.71875 206.589844 140.441406 206.589844 142.25 C 206.589844 143.335938 207.492188 144.601562 209.113281 144.601562 C 210.015625 144.601562 210.734375 144.238281 211.457031 143.878906 C 213.617188 142.429688 213.796875 140.441406 213.796875 138.089844 Z M 224.789062 119.457031 L 231.457031 119.457031 L 231.457031 126.511719 L 235.785156 126.511719 L 235.785156 130.671875 L 231.460938 130.671875 L 231.460938 140.800781 C 231.460938 142.25 231.460938 143.335938 233.261719 143.335938 L 235.605469 143.335938 L 235.605469 148.582031 C 234.160156 148.761719 233.261719 148.941406 232.179688 148.941406 C 229.835938 148.941406 227.316406 148.761719 225.871094 146.773438 C 224.972656 145.503906 224.972656 143.878906 224.972656 141.707031 L 224.972656 130.851562 L 221.726562 130.851562 L 221.726562 126.691406 L 224.972656 126.691406 L 224.972656 119.457031 Z M 259.390625 142.972656 C 258.671875 144.058594 257.769531 145.324219 256.6875 146.410156 C 254.707031 148.21875 251.824219 149.667969 248.21875 149.667969 C 241.550781 149.667969 236.863281 145.324219 236.863281 137.90625 C 236.863281 132.480469 239.570312 125.425781 248.398438 125.425781 C 249.660156 125.425781 253.625 125.605469 256.507812 128.683594 C 259.390625 131.9375 259.570312 136.28125 259.753906 138.8125 L 243.53125 138.8125 C 243.53125 141.707031 245.15625 144.421875 248.757812 144.421875 C 252.363281 144.421875 253.625 142.070312 254.527344 140.441406 Z M 252.722656 134.472656 C 252.542969 133.566406 252.363281 132.300781 251.460938 131.214844 C 250.5625 130.3125 249.300781 129.949219 248.21875 129.949219 C 246.597656 129.949219 245.515625 130.671875 244.792969 131.398438 C 243.894531 132.480469 243.714844 133.386719 243.535156 134.472656 Z M 252.722656 134.472656 "/>
<path style=" stroke:none;fill-rule:nonzero;fill:#fff;fill-opacity:1;" d="M 26.199219 161.425781 L 26.199219 178.609375 C 26.199219 181.503906 26.199219 184.578125 24.394531 187.292969 C 21.152344 192.539062 14.304688 192.898438 13.042969 192.898438 C 10.699219 192.898438 7.996094 192.355469 6.015625 191.273438 C 0.0664062 188.195312 0.0664062 182.769531 0.246094 178.609375 L 0.246094 161.425781 L 7.996094 161.425781 L 7.996094 180.597656 C 7.996094 182.226562 7.996094 183.492188 8.539062 184.398438 C 9.4375 186.027344 11.601562 186.570312 13.402344 186.570312 C 18.628906 186.570312 18.628906 182.949219 18.628906 180.597656 L 18.628906 161.605469 Z M 36.289062 171.554688 C 37.011719 170.832031 37.371094 170.289062 38.453125 169.746094 C 39.535156 169.382812 40.976562 168.839844 42.597656 168.839844 C 43.859375 168.839844 45.480469 169.023438 46.5625 169.746094 C 48.90625 171.011719 49.625 173 49.625 176.617188 L 49.625 192.175781 L 42.957031 192.175781 L 42.957031 179.332031 C 42.957031 177.34375 42.957031 176.617188 42.597656 175.894531 C 42.054688 174.628906 40.976562 174.085938 39.535156 174.085938 C 36.109375 174.085938 36.109375 176.980469 36.109375 179.695312 L 36.109375 191.996094 L 29.441406 191.996094 L 29.441406 169.382812 L 36.109375 169.382812 L 36.109375 171.554688 Z M 53.230469 161.425781 L 59.71875 161.425781 L 59.71875 166.671875 L 53.230469 166.671875 Z M 53.230469 169.382812 L 59.71875 169.382812 L 59.71875 192.175781 L 53.230469 192.175781 Z M 61.699219 169.382812 L 68.726562 169.382812 C 71.429688 179.511719 71.972656 181.503906 72.691406 185.84375 C 73.59375 180.78125 73.773438 180.238281 75.035156 174.992188 L 76.476562 169.382812 L 83.324219 169.382812 L 75.9375 191.996094 L 68.910156 191.996094 Z M 105.851562 186.386719 C 105.128906 187.472656 104.230469 188.738281 103.148438 189.824219 C 101.167969 191.632812 98.28125 193.082031 94.679688 193.082031 C 88.011719 193.082031 83.324219 188.738281 83.324219 181.324219 C 83.324219 175.894531 86.027344 168.839844 94.859375 168.839844 C 96.121094 168.839844 100.085938 169.023438 102.96875 172.097656 C 105.851562 175.351562 106.03125 179.695312 106.210938 182.226562 L 89.992188 182.226562 C 89.992188 185.121094 91.617188 187.835938 95.21875 187.835938 C 98.824219 187.835938 100.085938 185.484375 100.988281 183.855469 Z M 99.183594 177.886719 C 99.003906 176.980469 98.824219 175.714844 97.921875 174.628906 C 97.019531 173.722656 95.761719 173.363281 94.679688 173.363281 C 93.054688 173.363281 91.976562 174.085938 91.253906 174.808594 C 90.351562 175.894531 90.171875 176.800781 89.992188 177.886719 Z M 115.222656 171.734375 C 116.664062 170.46875 118.285156 169.566406 121.710938 169.203125 L 121.710938 175.171875 L 119.546875 175.535156 C 116.304688 176.078125 115.402344 176.617188 115.402344 179.515625 L 115.402344 192.355469 L 108.734375 192.355469 L 108.734375 169.382812 L 115.222656 169.382812 Z M 125.855469 184.398438 C 127.65625 186.207031 130 187.472656 132.34375 187.472656 C 133.964844 187.472656 136.308594 186.929688 136.308594 185.300781 C 136.308594 184.578125 135.765625 184.21875 135.40625 184.035156 C 134.324219 183.492188 132.882812 183.3125 131.621094 183.132812 C 130.539062 182.949219 129.640625 182.769531 128.558594 182.40625 C 127.117188 182.046875 125.855469 181.503906 124.773438 180.417969 C 123.691406 179.332031 123.152344 177.886719 123.152344 176.078125 C 123.152344 172.277344 126.394531 168.480469 132.703125 168.480469 C 138.109375 168.480469 141.171875 170.832031 142.796875 171.917969 L 138.648438 175.714844 C 136.488281 174.085938 134.503906 173.542969 133.0625 173.542969 C 130.539062 173.542969 129.820312 174.628906 129.820312 175.171875 C 129.820312 176.4375 131.261719 176.800781 133.421875 177.160156 C 137.929688 178.066406 143.15625 179.152344 143.15625 184.578125 C 143.15625 190.003906 137.75 192.539062 132.523438 192.539062 C 126.214844 192.539062 122.972656 189.460938 121.53125 188.195312 Z M 145.316406 161.425781 L 151.804688 161.425781 L 151.804688 166.671875 L 145.320312 166.671875 L 145.320312 161.425781 Z M 145.316406 169.382812 L 151.804688 169.382812 L 151.804688 192.175781 L 145.320312 192.175781 L 145.320312 169.382812 Z M 157.574219 162.871094 L 164.242188 162.871094 L 164.242188 169.925781 L 168.566406 169.925781 L 168.566406 174.085938 L 164.242188 174.085938 L 164.242188 184.21875 C 164.242188 185.664062 164.242188 186.75 166.042969 186.75 L 168.386719 186.75 L 168.386719 191.996094 C 166.945312 192.175781 166.042969 192.355469 164.960938 192.355469 C 162.617188 192.355469 160.09375 192.175781 158.652344 190.1875 C 157.753906 188.921875 157.753906 187.292969 157.753906 185.121094 L 157.753906 174.265625 L 154.328125 174.265625 L 154.328125 170.105469 L 157.574219 170.105469 Z M 191.632812 169.382812 L 183.703125 193.804688 C 183.164062 195.25 182.621094 196.699219 181.539062 197.964844 C 179.917969 199.59375 178.476562 199.773438 176.675781 199.773438 L 171.808594 199.773438 L 171.808594 194.527344 L 174.152344 194.527344 C 175.234375 194.527344 176.855469 194.527344 176.855469 192.898438 C 176.855469 192.355469 176.675781 191.8125 176.496094 191.269531 L 169.828125 169.382812 L 176.855469 169.382812 L 180.640625 185.664062 L 184.421875 169.382812 Z M 191.632812 169.382812 "/>
<path style=" stroke:none;fill-rule:nonzero;fill:#fff;fill-opacity:1;" d="M 218.664062 89.972656 C 215.421875 86.535156 215.601562 82.917969 215.601562 82.917969 L 215.601562 0.0664062 L 184.421875 0.0664062 L 184.421875 66.277344 C 184.0625 72.605469 177.9375 74.054688 174.511719 74.054688 C 169.648438 73.871094 166.945312 71.160156 166.945312 66.457031 L 166.945312 0.0664062 L 115.042969 0.0664062 C 98.460938 0.0664062 82.785156 2.601562 77.378906 16.527344 L 74.3125 4.226562 C 73.59375 1.695312 70.890625 0.0664062 68.367188 0.0664062 L 14.125 0.0664062 C 13.402344 0.0664062 13.042969 0.25 13.402344 0.792969 C 13.402344 0.792969 14.84375 2.238281 17.546875 5.3125 C 21.332031 9.65625 19.890625 15.261719 19.890625 15.261719 L 0.0664062 95.21875 L 29.082031 95.21875 L 33.226562 77.671875 L 61.160156 77.671875 L 65.484375 95.21875 L 103.507812 95.21875 C 119.1875 95.21875 131.800781 93.589844 138.109375 83.820312 C 142.792969 92.683594 152.886719 97.027344 170.726562 95.398438 C 176.855469 94.855469 182.984375 91.960938 185.683594 87.257812 L 186.945312 91.058594 C 188.027344 93.410156 190.191406 95.035156 193.074219 95.035156 L 222.269531 95.035156 C 222.988281 95.21875 223.351562 95.035156 222.808594 94.492188 C 222.808594 94.492188 221.1875 92.683594 218.664062 89.972656 Z M 71.613281 17.253906 L 76.835938 20.328125 C 76.65625 21.234375 76.476562 22.316406 76.296875 23.222656 L 70.890625 18.15625 C 70.351562 17.613281 71.070312 16.890625 71.613281 17.253906 Z M 66.386719 23.765625 L 76.117188 27.746094 C 76.117188 28.832031 76.117188 30.457031 76.296875 31.722656 L 65.84375 24.851562 C 65.304688 24.488281 65.664062 23.585938 66.386719 23.765625 Z M 62.421875 31.363281 L 76.835938 34.617188 C 77.199219 36.425781 77.917969 38.234375 78.640625 39.683594 L 62.058594 32.449219 C 61.519531 32.085938 61.699219 31.179688 62.421875 31.363281 Z M 37.550781 60.304688 L 47.101562 21.230469 L 56.835938 60.304688 Z M 117.386719 73.328125 C 114.683594 75.863281 109.457031 77.128906 103.871094 76.585938 C 100.625 76.222656 97.382812 74.597656 97.382812 74.597656 L 85.667969 89.066406 C 85.128906 89.609375 84.226562 89.066406 84.585938 88.34375 L 92.515625 72.242188 C 92.695312 72.0625 92.335938 71.882812 92.15625 72.0625 L 77.917969 84.542969 C 77.378906 85.085938 76.65625 84.363281 77.019531 83.640625 L 88.011719 68.988281 C 88.191406 68.808594 88.011719 68.625 87.832031 68.808594 L 71.433594 78.757812 C 70.890625 79.117188 70.171875 78.214844 70.710938 77.851562 L 84.40625 65.007812 C 84.585938 64.828125 84.40625 64.648438 84.226562 64.648438 L 66.027344 72.0625 C 65.304688 72.242188 64.945312 71.339844 65.484375 70.976562 L 81.523438 60.484375 C 81.703125 60.304688 81.523438 60.125 81.34375 60.125 L 62.421875 64.648438 C 61.699219 64.828125 61.519531 63.921875 62.0625 63.5625 L 79.902344 55.78125 C 80.082031 55.78125 80.082031 55.421875 79.902344 55.421875 L 60.078125 56.6875 C 59.359375 56.6875 59.175781 55.78125 59.898438 55.601562 L 79 50.71875 C 79.179688 50.71875 79.179688 50.355469 79 50.355469 L 59.175781 48.546875 C 58.457031 48.546875 58.457031 47.460938 59.175781 47.460938 L 79 45.652344 C 79.179688 45.652344 79.179688 45.472656 79 45.292969 L 59.898438 40.40625 C 59.175781 40.226562 59.355469 39.320312 60.078125 39.320312 L 79 40.40625 C 83.867188 49.269531 94.136719 52.886719 103.148438 56.144531 C 111.980469 59.21875 119.546875 61.753906 119.546875 68.625 C 119.546875 70.433594 118.828125 72.0625 117.386719 73.328125 Z M 144.597656 84.542969 L 140.09375 80.566406 C 140.09375 80.566406 140.8125 78.9375 141.171875 77.851562 L 145.5 83.640625 C 145.859375 84.183594 145.136719 84.90625 144.597656 84.542969 Z M 151.085938 78.757812 L 142.074219 73.328125 C 142.074219 73.328125 142.433594 70.617188 142.433594 69.167969 L 151.804688 77.851562 C 152.347656 78.394531 151.625 79.117188 151.085938 78.757812 Z M 156.3125 72.0625 L 142.613281 66.457031 C 142.613281 66.457031 142.613281 63.199219 142.253906 61.390625 L 156.851562 70.976562 C 157.394531 71.339844 157.03125 72.242188 156.3125 72.0625 Z M 163.519531 48.1875 L 143.695312 49.992188 C 143.515625 49.992188 143.515625 50.175781 143.695312 50.355469 L 162.796875 55.238281 C 163.519531 55.421875 163.339844 56.324219 162.617188 56.324219 L 142.796875 55.058594 C 142.613281 55.058594 142.613281 55.238281 142.796875 55.421875 L 160.636719 63.199219 C 161.359375 63.5625 160.996094 64.464844 160.277344 64.285156 L 142.074219 60.484375 C 142.074219 60.484375 141.355469 52.347656 131.804688 45.652344 C 126.9375 42.214844 120.808594 39.863281 115.582031 37.875 C 111.4375 36.246094 107.65625 34.800781 104.949219 33.171875 C 101.886719 31.179688 100.445312 29.011719 100.445312 26.476562 C 100.445312 24.667969 100.988281 23.042969 102.246094 21.773438 C 104.410156 19.605469 108.195312 18.699219 113.421875 18.699219 C 119.007812 18.699219 124.953125 21.230469 124.953125 21.230469 L 136.847656 6.398438 C 137.390625 5.855469 138.289062 6.398438 137.929688 7.121094 L 129.820312 23.402344 C 129.820312 23.585938 130 23.765625 130 23.585938 L 144.417969 11.101562 C 144.957031 10.558594 145.679688 11.285156 145.320312 12.007812 L 134.144531 26.839844 C 133.964844 27.019531 134.144531 27.203125 134.324219 27.019531 L 150.90625 16.890625 C 151.445312 16.527344 152.164062 17.433594 151.625 17.796875 L 137.929688 30.640625 C 137.75 30.820312 137.929688 31 138.109375 30.820312 L 156.3125 23.402344 C 157.03125 23.222656 157.390625 24.125 156.851562 24.488281 L 140.8125 34.980469 C 140.632812 35.160156 140.8125 35.34375 140.992188 35.34375 L 160.277344 31 C 160.996094 30.820312 161.175781 31.722656 160.636719 32.085938 L 142.796875 39.863281 C 142.613281 39.863281 142.613281 40.226562 142.796875 40.226562 L 162.617188 38.960938 C 163.339844 38.960938 163.519531 39.863281 162.796875 40.046875 L 143.695312 44.929688 C 143.515625 44.929688 143.515625 45.292969 143.695312 45.292969 L 163.519531 47.101562 C 164.242188 47.101562 164.242188 48.1875 163.519531 48.1875 Z M 163.519531 48.1875 "/>
</g>
</svg>
