<svg xmlns="http://www.w3.org/2000/svg" width="399.67" height="266.46"><rect id="backgroundrect" width="100%" height="100%" x="0" y="0" fill="none" stroke="none"/><g class="currentLayer" style=""><title>Layer 1</title><g id="svg_1" class="selected" fill="#ffffff" fill-opacity="1"><path d="m264.2499999982119,2.0483056440218187e-9 c1.9,0.3710598576068879 3.81,0.681947846412659 5.69,1.143265507221222 c8.91,2.1862445664405823 14,8.283660604953766 14.16,17.419756017923355 c0.17,8.27363196015358 0.07,16.557292565107346 0,24.830924525260926 a2.6,2.607447648048401 0 0 1 -0.8300000000000002,1.7951274192333222 c-22.65,18.352419984340667 -46.44,34.86959797024727 -74.13,44.89824277043343 c-11.56,4.191973526477813 -23.43,6.859593043327331 -35.82,6.117473328113555 c-8.61,-0.5014322400093079 -16.69,-2.7077340960502627 -23.18,-8.79512148976326 c-6.1,-5.706298891305924 -8.55,-12.91689450263977 -7.78,-21.180497817993164 c1.18,-12.666178382635117 8,-22.3137346804142 16.82,-30.79796818137169 c9.32,-9.025780320167542 20.51,-14.972766686677932 32.21,-20.14754740357399 a180.18,180.6961220097542 0 0 1 45.51,-13.598842349052429 c4.11,-0.621775977611542 8.26,-0.882520742416382 12.39,-1.3237811136245727 c0.7000000000000002,-0.08022915840148928 1.3900000000000001,-0.24068747520446782 2.08,-0.36103121280670175 z" id="svg_2" fill="#ffffff" fill-opacity="1"/><path d="m189.70999999821186,2.0483056440218187e-9 c-6.7,2.737820030450821 -13.5,5.2650385200977325 -20.08,8.263603315353393 a112.81,113.13314199090004 0 0 0 -32.16,21.340956134796144 a73.85,74.06154184937476 0 0 0 -20.83,35.280772407054904 c-0.09000000000000004,0.3710598576068879 -0.27,0.7120337808132173 -0.5900000000000002,1.5444112992286683 c0,-1.1031509280204774 -0.1,-1.7449841952323917 -0.1,-2.3868174624443053 c0,-15.965602521896363 0.3000000000000001,-31.941233688592913 -0.13,-47.89680756568909 c-0.22000000000000006,-8.022915840148926 6.61,-14.361019353866578 12.37,-15.744972336292266 a9.15,9.176209992170334 0 0 0 1,-0.4011457920074463 z" id="svg_3" fill="#ffffff" fill-opacity="1"/><path d="m399.65999999821184,200.6631538089731 h-7.15 v-45.760706223249436 h7.15 z" id="svg_4" fill="#ffffff" fill-opacity="1"/><path d="m115.99999999821186,94.48989130940228 c2.31,3.118908532857895 4.4,6.398275382518769 6.93,9.296553729772567 c7.7,8.805150134563446 17.72,13.358154873847962 29.08,15.103139069080353 c17,2.6174762928485875 33.45,-0.47134630560874946 49.59,-5.656155667304994 c23.2,-7.451283086538314 44.39,-19.0544251203537 64.59,-32.482780507802964 c6,-4.011457920074463 11.81,-8.223488736152648 17.88,-12.465605486631393 c0,0.7722056496143341 0.09000000000000004,1.4541534960269928 0.09000000000000004,2.1260726976394655 c0,16.166175417900085 -0.27,32.33235083580017 0.12000000000000002,48.48849760890007 c0.18000000000000005,7.54154088973999 -6.75,14.04010272026062 -12.46,15.233511451482773 a18,18.051560640335083 0 0 1 -3.66,0.41117443680763255 q-68.07,0 -136.15,0 c-7.38,0 -14.28,-5.385382257699966 -15.85,-12.315175814628601 a8.42,8.444118921756745 0 0 1 -0.2,-1.7349555504322052 q0,-12.606006513834 0,-25.222041672468183 c-0.010000000000000004,-0.28080205440521244 0.030000000000000013,-0.5816613984107973 0.040000000000000015,-0.7822342944145203 z" id="svg_5" fill="#ffffff" fill-opacity="1"/><path d="m42.419999998211864,164.2992877634981 l-6.72,3.540111614465714 a13.94,13.979930851459503 0 0 0 -8.45,-6.257874355316162 a15.38,15.42405570268631 0 0 0 -18.6,12.515748710632325 c-1.08,6.7994211745262145 0.4400000000000001,12.78652212023735 6,17.048696160316467 c6.39,4.924064596891403 15.39,4.191973526477813 20.36,-2.667619516849518 c0.18000000000000005,-0.25071612000465393 0.4,-0.4914035952091218 0.7000000000000002,-0.8424061632156374 l6.59,3.279366849660873 c-2.47,6.829507108926774 -12.68,11.753571705818176 -21.47,10.489962460994722 c-11.82,-1.7951274192333222 -20,-10.138959892988204 -20.76,-21.350984779596327 c-0.8500000000000002,-12.034373760223389 5.61,-21.89253159880638 16.43,-25.071612000465393 c10.58,-3.138965822458267 21.09,0.5716327536106112 25.92,9.316611019372939 z" id="svg_6" fill="#ffffff" fill-opacity="1"/><path d="m201.69999999821187,187.65600150313168 l6.62,3.3295100736618046 c-4.6,8.213460091352463 -13.21,11.984230536222457 -23.71,10.028644800186157 a23,23.06588304042816 0 0 1 -18.69,-21.77218786120415 c-0.54,-11.623199323415756 5.8900000000000015,-21.06015408039093 16.5,-24.259291771650314 s20.82,0.47134630560874946 25.94,9.266467795372009 l-6.73,3.5802261936664586 a14.32,14.361019353866578 0 0 0 -8.39,-6.247845710515977 a15.38,15.42405570268631 0 0 0 -18.72,12.746407541036607 c-1,7.02005136013031 0.7000000000000002,13.107438753843308 6.79,17.29941228032112 c6.69,4.613176608085632 14.73,3.2191949808597564 19.68,-3.2292236256599427 c0.2,-0.21060154080390936 0.4300000000000001,-0.4312317264080049 0.7100000000000002,-0.7421197152137758 z" id="svg_7" fill="#ffffff" fill-opacity="1"/><path d="m120.64999999821185,200.51272413697035 v-3.41976787686348 c-2.22,1.273637889623642 -4.33,3.008593440055847 -6.74,3.790827734470368 a13.4,13.43838403224945 0 0 1 -16.3,-6.8495643985271455 a21.45,21.511443096399308 0 0 1 -0.12000000000000002,-19.706287032365797 c4.27,-8.7650355553627 15.3,-10.459876526594162 22.22,-3.6002834832668302 a2.94,2.9484215712547304 0 0 1 0.3900000000000001,0.882520742416382 l0.5,-0.3309452784061433 v-3.7306558656692506 h7.33 v32.974184103012085 zm0,-16.49712069630623 c0,-1.8252133536338806 0.05000000000000002,-3.650426707267761 0,-5.475640060901642 a3,3.008593440055847 0 0 0 -0.53,-1.7750701296329499 a10.08,10.108873958587646 0 0 0 -8.58,-3.750713155269623 a8.49,8.514319435358047 0 0 0 -7.62,5.525783284902572 a13.56,13.598842349052429 0 0 0 -0.2,10.43981923699379 a8.86,8.885379292964934 0 0 0 10.72,5.806585339307785 c4.33,-1.0028644800186157 6.23,-3.299424139261246 6.23,-7.6418273377418515 z" id="svg_8" fill="#ffffff" fill-opacity="1"/><path d="m272.03999999821184,171.4797974404314 v-3.9312287616729735 h7.32 v32.9641554582119 h-7.18 c-0.05000000000000002,-1.1934087312221526 -0.11000000000000003,-2.3767888176441194 -0.15000000000000005,-3.319481428861618 c-2.23,1.273637889623642 -4.32,2.918335636854172 -6.69,3.7105985760688784 a13.42,13.458441321849824 0 0 1 -16.2,-6.7492779505252845 a21.42,21.48135716199875 0 0 1 -0.05000000000000002,-20.057289600372314 a13.66,13.699128797054291 0 0 1 21.91,-3.5802261936664586 c0.25,0.23065883040428162 0.52,0.47134630560874946 1.04,0.9627499008178713 zm0.05000000000000002,12.57592057943344 c0,-1.8853852224349978 0.06000000000000002,-3.7707704448699952 0,-5.656155667304994 a3.08,3.0888225984573365 0 0 0 -0.7000000000000002,-1.9154711568355562 c-2.89,-2.9083069920539857 -6.36,-4.292259974479675 -10.42,-3.068765308856964 c-3.89,1.1733514416217803 -5.72,4.212030816078186 -6.44,8.022915840148926 a11.28,11.312311334609985 0 0 0 -0.18000000000000005,1.7449841952323917 c-0.06000000000000002,4.442689646482467 0.9,8.444118921756745 5.12,10.810879094600677 c3.37,1.8853852224349978 7.67,1.1733514416217803 11.05,-1.5744972336292267 a3.8200000000000003,3.8309423136711125 0 0 0 1.6300000000000003,-3.499997035264969 c-0.14,-1.5544399440288543 -0.06000000000000002,-3.2292236256599427 -0.06000000000000002,-4.863892728090286 z" id="svg_9" fill="#ffffff" fill-opacity="1"/><path d="m212.82999999821186,154.812189782522 h7 v16.818037329912187 c2.71,-2.5272184896469114 5.41,-4.402575067281723 8.69,-4.713463056087494 a22.6,22.664737248420717 0 0 1 7.66,0.3810885024070741 c4.52,1.1833800864219666 6,4.954150531291962 6.1,9.176209992170334 c0.16000000000000006,7.872486168146133 0,15.755000981092454 0,23.637515794038773 c0,0.11031509280204775 -0.1,0.23065883040428162 -0.2,0.45128901600837706 h-7.11 v-2.106015408039093 c0,-6.017186880111694 -0.22000000000000006,-12.034373760223389 0.05000000000000002,-17.98136012673378 c0.3300000000000001,-7.300853414535522 -5.09,-8.514319435358047 -9.91,-6.859593043327331 a14.83,14.87248023867607 0 0 0 -2.43,1.203437376022339 a5.37,5.385382257699966 0 0 0 -3,5.37535361289978 c0.22000000000000006,6.017186880111694 0.07,12.114602918624877 0.07,18.171904377937317 v2.1962732112407686 h-7 z" id="svg_10" fill="#ffffff" fill-opacity="1"/><path d="m91.76999999821186,186.45256412710935 h-25.55 c0.26,7.15042374253273 9.53,13.167610622644425 19.9,5.505725995302201 c1.06,1.524354009628296 2.13,3.008593440055847 3.23,4.613176608085632 a17.49,17.54009975552559 0 0 1 -10.14,4.683377121686935 c-7.16,0.9126066768169403 -13.53,-0.6719192016124729 -17.82,-7.02005136013031 c-6.09,-8.97563709616661 -3,-24.840953170061113 10.65,-27.37820030450821 c10.34,-1.9154711568355562 18,4.342403198480606 19.32,14.330933419466017 c0.23,1.6848123264312749 0.27,3.3595960080623626 0.4100000000000001,5.2650385200977325 zm-7.27,-5.425496836900711 c-0.56,-5.63609837770462 -4.54,-8.92549387216568 -10.14,-8.504290790557862 c-4.57,0.3409739232063295 -8.28,4.222059460878373 -8.13,8.504290790557862 z" id="svg_11" fill="#ffffff" fill-opacity="1"/><path d="m387.56999999821187,186.52276464071065 h-25.29 c0.7300000000000002,8.92549387216568 9.870000000000001,11.392540493011474 19.95,5.475640060901642 c1,1.464182140827179 2,2.938392926454544 3.18,4.563033384084702 a16.22,16.266461865901945 0 0 1 -8,4.252145395278931 c-7.3100000000000005,1.6045831680297853 -14,0.7120337808132173 -19.1,-5.405439547300339 c-7.51,-9.085952188968658 -4.19,-26.184791573286056 10.07,-28.591666325330735 c10.8,-1.8252133536338806 18.16,5.014322400093079 19.16,15.47419892668724 c0.13,1.283666534423828 0.030000000000000013,2.5974190032482145 0.030000000000000013,4.232088105678558 zm-25.31,-5.495697350502015 h18.23 c0,-4.8538640832901 -4,-8.504290790557862 -9.1,-8.524348080158234 s-9.08,3.7105985760688784 -9.13,8.524348080158234 z" id="svg_12" fill="#ffffff" fill-opacity="1"/><path d="m292.2399999982119,167.53854003395824 v3.2191949808597564 c2.83,-1.2936951792240143 5.55,-3.008593440055847 8.52,-3.7306558656692506 a17.52,17.57018568992615 0 0 1 7.65,0.21060154080390936 a8.1,8.123202288150788 0 0 1 6.15,8.09311635375023 c0.11000000000000003,8.343832473754883 0,16.687664947509766 0,25.191955738067627 h-7.09 v-2.0057289600372314 c0,-5.8667572081089014 0,-11.733514416217803 0,-17.600271624326705 c0,-0.8424061632156374 -0.13,-1.6848123264312749 -0.19000000000000006,-2.5272184896469114 c-0.3200000000000001,-4.252145395278931 -3.51,-5.886814497709274 -7.1,-5.345267678499222 c-2.25,0.3409739232063295 -4.37,1.7349555504322052 -6.47,2.8080205440521238 c-1.18,0.6117473328113558 -1.49,1.785098774433136 -1.47,3.1590231120586396 c0.06000000000000002,7.100280518531799 0,14.200561037063599 0,21.461299872398374 h-7.21 v-32.934069523811345 z" id="svg_13" fill="#ffffff" fill-opacity="1"/><path d="m327.82999999821186,200.57289600577144 h-7.24 v-33.00427003741264 h7.24 v3.169051756858826 c2.87,-1.283666534423828 5.6,-3.008593440055847 8.57,-3.7005699312686926 a17.41,17.459870597124098 0 0 1 7.46,0.15042967200279242 a7.91,7.932658036947251 0 0 1 6.2,7.621770048141479 c0.15000000000000005,8.524348080158234 0,17.048696160316467 0,25.72347391247749 h-7 v-2.0057289600372314 q0,-9.10600947856903 0,-18.181933022737503 c0,-5.796556694507599 -3.2,-8.444118921756745 -8.8,-7.02005136013031 a14.47,14.51144902586937 0 0 0 -5,2.727791385650635 a4.23,4.242116750478745 0 0 0 -1.32,2.9484215712547304 c-0.12000000000000002,6.448418606519699 -0.06000000000000002,12.906865857839586 -0.06000000000000002,19.355284464359283 z" id="svg_14" fill="#ffffff" fill-opacity="1"/><path d="m109.44999999821187,267.1530688342074 c-11.75,0 -20.85,-8.444118921756745 -22,-20.22777656197548 c-0.78,-7.7521424305439 0.6100000000000002,-14.892537528276444 6,-20.66903693318367 c6.2,-6.598848278522492 14.05,-8.153288222551346 22.54,-5.826642628908158 s13.12,8.263603315353393 15.13,16.527206630706786 a27.12,27.197684698104858 0 0 1 -0.2900000000000001,14.090245944261552 a21.43,21.491385806798935 0 0 1 -21.38,16.10600354909897 zm-18.15,-23.06588304042816 a51.79,51.93835142016411 0 0 0 0.93,5.786528049707412 a17.38,17.42978466272354 0 0 0 17,13.669042862653733 c8.15,0.15042967200279242 14.77,-4.753577635288239 17.3,-12.816608054637909 a24.1,24.16903396844864 0 0 0 0.7000000000000002,-11.9541446018219 c-1.25,-6.598848278522492 -4.44,-11.87391544342041 -11,-14.320904774665832 s-12.58,-1.8051560640335083 -18,2.55730442404747 c-5.03,4.081658433675766 -6.66,9.828071904182435 -6.93,17.078782094717027 z" id="svg_15" fill="#ffffff" fill-opacity="1"/><path d="m213.01999999821186,220.319297617338 h3.58 v45.87102131605148 h-3.42 v-5.014322400093079 c-2.47,2.8481351232528684 -5,4.713463056087494 -8.14,5.5157546401023865 a13.83,13.869615758657455 0 0 1 -16.68,-8.404004342556 a21.86,21.92261753320694 0 0 1 0.6100000000000002,-18.52290694594383 a13.94,13.979930851459503 0 0 1 22.4,-3.530082969665527 c0.46,0.45128901600837706 0.91,0.9226353216171265 1.6500000000000004,1.6747836816310886 zm0.09000000000000004,29.4842157125473 c0,-2.3467028832435606 0,-4.693405766487121 0,-7.02005136013031 a3.44,3.4498538112640382 0 0 0 -0.4100000000000001,-1.8352419984340669 a12.73,12.766464830636979 0 0 0 -11,-5.4656114161014555 a10.16,10.189103116989136 0 0 0 -9.18,5.886814497709274 a17.7,17.7507012963295 0 0 0 -1.6900000000000004,11.733514416217803 c0.8500000000000002,4.683377121686935 2.87,8.58451994895935 7.69,10.138959892988204 c5,1.594554523229599 9.3,0.06017186880111696 13,-3.4097392320632935 a4.4,4.41260371208191 0 0 0 1.55,-3.790827734470368 c-0.06000000000000002,-2.0759294736385345 0.040000000000000015,-4.161887592077256 0.040000000000000015,-6.23781706571579 z" id="svg_16" fill="#ffffff" fill-opacity="1"/><path d="m291.28999999821184,249.54276856508045 c-0.1,7.661884627342226 -3.85,13.959873561859132 -9.88,16.436948827505113 a15.79,15.835230139493941 0 0 1 -21.83,-12.23494665622711 c-1,-6.017186880111694 -0.19000000000000006,-11.633227968215943 3.85,-16.346691024303436 c4.35,-5.084522913694382 10.08,-6.247845710515977 16.31,-4.573062028884888 s9.620000000000001,6.3080175793170925 11,12.465605486631393 c0.3100000000000001,1.3638956928253174 0.3700000000000001,2.8080205440521238 0.55,4.252145395278931 zm-4,0.5515754640102387 a16.8,16.848123264312743 0 0 0 -2.22,-8.92549387216568 a11.41,11.442683717012406 0 0 0 -19.58,-0.3810885024070741 a17.1,17.14898260831833 0 0 0 0.26,18.101703864336013 a11.36,11.392540493011474 0 0 0 18.92,-0.11031509280204775 a16.1,16.146118128299715 0 0 0 2.62,-8.71489233136177 z" id="svg_17" fill="#ffffff" fill-opacity="1"/><path d="m222.76999999821186,249.63302636828215 c0.11000000000000003,-8.203431446552276 4.48,-14.802279725074769 11.25,-16.838094619512557 a15.83,15.875344718694686 0 0 1 20.43,12.485662776231765 c1.07,5.816613984107971 0.3500000000000001,11.362454558610915 -3.42,16.09597490429878 c-4.26,5.335239033699036 -10,6.859593043327331 -16.46,5.204866651296616 s-9.88,-6.368189448118209 -11.26,-12.696264317035675 c-0.3100000000000001,-1.393981627225876 -0.3600000000000001,-2.8381064784526826 -0.54,-4.252145395278931 zm4,-0.13037238240242005 a15.67,15.71488640189171 0 0 0 2.7,9.386811532974242 a11.39,11.422626427412034 0 0 0 18.48,0.47134630560874946 c4,-5.214895296096802 4.07,-13.739243376255034 0.27,-19.0544251203537 a11.39,11.422626427412034 0 0 0 -18.94,0.3309452784061433 a15.46,15.5042848610878 0 0 0 -2.5300000000000002,8.905436582565308 z" id="svg_18" fill="#ffffff" fill-opacity="1"/><path d="m47.40999999821186,154.8222184273222 h7.1 v45.74064893364906 h-7.1 z" id="svg_19" fill="#ffffff" fill-opacity="1"/><path d="m141.25999999821187,200.57289600577144 h-7.29 v-33.02432732701302 h7 v4.442689646482467 c3.23,-3.0888225984573365 6.38,-5.445554126501083 10.78,-5.365324968099594 v7.02005136013031 a11.9,11.934087312221527 0 0 0 -8.83,2.356731528043747 a3.88,3.891114182472229 0 0 0 -1.7000000000000002,3.4598824560642245 c0.09000000000000004,6.999994070529938 0.040000000000000015,13.969902206659317 0.040000000000000015,21.11029730439186 z" id="svg_20" fill="#ffffff" fill-opacity="1"/><path d="m138.89999999821185,233.10581973757536 h3.37 v2.206301856040955 v19.926917217969894 s3.11,9.316611019372939 9.76,8.434090276956558 a12.89,12.926923147439958 0 0 0 7.8100000000000005,-4.011457920074463 a4.8900000000000015,4.904007307291033 0 0 0 1.25,-3.008593440055847 c0.11000000000000003,-7.100280518531799 0.06000000000000002,-14.200561037063599 0.06000000000000002,-21.300841555595397 v-2.2163305008411407 h3.47 v33.09452784061432 h-3.37 v-4.603147963285446 c-1.08,0.8524348080158236 -1.8,1.4441248512268066 -2.54,2.0057289600372314 a15.81,15.855287429094314 0 0 1 -9.9,3.499997035264969 c-6.33,0 -9.870000000000001,-3.008593440055847 -10.09,-9.376782888174057 c-0.28,-8.022915840148926 -0.07,-16.146118128299715 -0.06000000000000002,-24.219177192449568 c0.010000000000000004,-0.10028644800186158 0.17,-0.21060154080390936 0.24000000000000005,-0.4312317264080049 z" id="svg_21" fill="#ffffff" fill-opacity="1"/><path d="m184.98999999821186,262.4095198437193 l1.24,2.5071612000465393 a7.92,7.942686681747436 0 0 1 -8.54,1.7148982608318328 c-2.7600000000000002,-1.203437376022339 -3.58,-3.5902548384666444 -3.59,-6.378218092918396 c0,-7.220624256134033 0,-14.451277157068253 0,-21.68193005800247 v-2.326645593643189 h-5.39 v-3.2191949808597564 h5.43 v-9.116038123369217 h3.5700000000000003 c0,2.4369606864452362 0.07,4.8739213728904724 0,7.310882059335708 c-0.05000000000000002,1.3638956928253174 0.3800000000000001,1.8753565776348116 1.7600000000000002,1.7951274192333222 c1.61,-0.10028644800186158 3.22,0 5,0 v3.1790804016590117 h-6.71 v22.373906549215317 c0,5.1647520720958715 2.55,6.598848278522492 7.23,3.8409709584712983 z" id="svg_22" fill="#ffffff" fill-opacity="1"/><path d="m297.4399999982119,233.10581973757536 h3.46 v5.285095809698104 c3.21,-3.4699111008644103 6.37,-6.137530617713928 11.11,-6.017186880111694 v3.780799089670181 c-3.83,-0.28080205440521244 -6.91,1.2535806000232697 -9.57,3.8409709584712983 a4.8100000000000005,4.823778148889542 0 0 0 -1.57,3.790827734470368 c0.08000000000000003,7.41116850733757 0,14.832365659475325 0,22.414021128416064 h-3.47 z" id="svg_23" fill="#ffffff" fill-opacity="1"/></g></g></svg>