<svg xmlns="http://www.w3.org/2000/svg" width="400" height="127"><rect id="backgroundrect" width="100%" height="100%" x="0" y="0" fill="none" stroke="none"/><title>designit</title><g class="currentLayer" style=""><title>Layer 1</title><g id="svg_1" class="selected" fill="#ffffff" fill-opacity="1"><g id="svg_2" fill="#ffffff" fill-opacity="1"><path d="M85.675,104.4980029296875 c-4.014,0 -7.336,3.391 -7.336,7.613 c0,4.221 3.253,7.612 7.336,7.612 c4.014,0 7.335,-3.39 7.335,-7.612 c0,-4.222 -3.252,-7.613 -7.335,-7.613 zm0,11.627 c-2.076,0 -3.737,-1.8 -3.737,-4.014 c0,-2.215 1.6600000000000001,-4.014 3.737,-4.014 c2.076,0 3.737,1.8 3.737,4.014 c0.06900000000000002,2.214 -1.661,4.014 -3.737,4.014 zM39.654,104.9140029296875 h-2.6990000000000003 c-0.20800000000000002,0 -0.48400000000000004,0.20700000000000002 -0.554,0.41500000000000004 l-2.214,6.99 l-3.806,-7.475 a0.8260000000000001,0.8260000000000001 0 0 0 -0.6230000000000001,-0.3460000000000001 h-0.277 a0.8260000000000001,0.8260000000000001 0 0 0 -0.6230000000000001,0.3460000000000001 l-3.806,7.474 l-2.215,-6.99 c-0.06900000000000002,-0.20700000000000002 -0.3460000000000001,-0.41400000000000003 -0.553,-0.41400000000000003 h-2.7 c-0.3450000000000001,0 -0.553,0.276 -0.41400000000000003,0.6220000000000001 L23.599,119.3780029296875 c0.06900000000000002,0.20800000000000002 0.3460000000000001,0.41600000000000004 0.553,0.41600000000000004 h0.41500000000000004 a0.8260000000000001,0.8260000000000001 0 0 0 0.6230000000000001,-0.3460000000000001 l4.499,-8.79 l4.498,8.79 a0.8260000000000001,0.8260000000000001 0 0 0 0.6230000000000001,0.3460000000000001 h0.41500000000000004 c0.20800000000000002,0 0.48400000000000004,-0.20800000000000002 0.554,-0.41600000000000004 l4.429,-13.84 c0,-0.3470000000000001 -0.20800000000000002,-0.6230000000000001 -0.554,-0.6230000000000001 zm6.367,0 h-2.7 a0.6200000000000001,0.6200000000000001 0 0 0 -0.6220000000000001,0.6220000000000001 v13.15 a0.6200000000000001,0.6200000000000001 0 0 0 0.6230000000000001,0.6220000000000001 h2.6990000000000003 a0.6200000000000001,0.6200000000000001 0 0 0 0.6230000000000001,-0.6230000000000001 V105.5360029296875 a0.6200000000000001,0.6200000000000001 0 0 0 -0.6230000000000001,-0.6220000000000001 zm11.903,-0.41600000000000004 c-1.8690000000000002,0 -3.599,0.8300000000000001 -4.844,2.146 l-0.48500000000000004,-1.315 c-0.06900000000000002,-0.20800000000000002 -0.3460000000000001,-0.41500000000000004 -0.553,-0.41500000000000004 h-1.246 a0.6200000000000001,0.6200000000000001 0 0 0 -0.6230000000000001,0.6220000000000001 V126.2980029296875 a0.6200000000000001,0.6200000000000001 0 0 0 0.6230000000000001,0.6230000000000001 h2.6990000000000003 a0.6200000000000001,0.6200000000000001 0 0 0 0.6230000000000001,-0.6230000000000001 v-7.198 c1.176,0.41600000000000004 2.422,0.6230000000000001 3.737,0.6230000000000001 c3.806,0 6.92,-3.39 6.92,-7.612 c0.07,-4.222 -3.045,-7.613 -6.851,-7.613 zm-0.7610000000000001,11.627 c-1.108,0 -2.215,-0.277 -3.045,-0.8300000000000001 v-5.468 a3.521,3.521 0 0 1 3.045,-1.8 c2.007,0 3.6670000000000003,1.8 3.6670000000000003,4.015 c0,2.283 -1.6600000000000001,4.083 -3.6670000000000003,4.083 zM74.879,104.4980029296875 c-2.63,0 -4.152,2.146 -4.152,2.146 l-0.48500000000000004,-1.315 c-0.06900000000000002,-0.20800000000000002 -0.3460000000000001,-0.41500000000000004 -0.553,-0.41500000000000004 h-1.246 a0.6200000000000001,0.6200000000000001 0 0 0 -0.6230000000000001,0.6220000000000001 v13.15 a0.6200000000000001,0.6200000000000001 0 0 0 0.6230000000000001,0.6220000000000001 h2.6990000000000003 a0.6200000000000001,0.6200000000000001 0 0 0 0.6230000000000001,-0.6230000000000001 v-9.204 c1.5910000000000002,-1.9380000000000002 3.598,-1.315 4.014,-1.107 c0.41500000000000004,0.138 0.6920000000000002,-0.07 0.8300000000000001,-0.3460000000000001 c0.138,-0.277 0.6920000000000002,-1.661 0.9690000000000001,-2.146 c0.20700000000000002,-0.48400000000000004 -0.139,-1.3840000000000001 -2.7,-1.3840000000000001 zM45.19,98.1320029296875 c-1.176,-0.3460000000000001 -2.353,0.41500000000000004 -2.6990000000000003,1.5910000000000002 c-0.3460000000000001,1.177 0.41600000000000004,2.422 1.5230000000000001,2.7 c1.176,0.3450000000000001 2.353,-0.41600000000000004 2.6990000000000003,-1.592 c0.3460000000000001,-1.177 -0.3460000000000001,-2.353 -1.5230000000000001,-2.7 z" id="svg_3" fill="#ffffff" fill-opacity="1"/><path d="M13.287,119.2380029296875 a3.373,3.373 0 0 1 -0.7610000000000001,0.278 c-0.277,0.06900000000000002 -0.48400000000000004,0.06900000000000002 -0.8300000000000001,0.06900000000000002 c-0.6230000000000001,0 -1.177,-0.20800000000000002 -1.5230000000000001,-0.6230000000000001 a2.418,2.418 0 0 1 -0.554,-1.522 H9.55 a4.54,4.54 0 0 1 -1.868,1.73 c-0.8300000000000001,0.41500000000000004 -1.73,0.6230000000000001 -2.769,0.6230000000000001 c-0.8300000000000001,0 -1.522,-0.139 -2.145,-0.41600000000000004 c-0.6230000000000001,-0.277 -0.9690000000000001,-0.6230000000000001 -1.3840000000000001,-1.038 c-0.41500000000000004,-0.41500000000000004 -0.6920000000000002,-0.9 -0.9,-1.453 a4.29,4.29 0 0 1 -0.276,-1.592 c0,-0.48400000000000004 0.06900000000000002,-0.9690000000000001 0.20700000000000002,-1.453 c0.139,-0.48400000000000004 0.41500000000000004,-0.9690000000000001 0.8300000000000001,-1.3840000000000001 c0.41600000000000004,-0.41500000000000004 0.9,-0.7610000000000001 1.5230000000000001,-1.107 c0.6230000000000001,-0.277 1.453,-0.48500000000000004 2.422,-0.554 l4.291,-0.277 v-1.038 c0,-0.3460000000000001 -0.07,-0.7610000000000001 -0.138,-1.107 a1.6400000000000001,1.6400000000000001 0 0 0 -0.6230000000000001,-1.038 c-0.277,-0.20800000000000002 -0.554,-0.41500000000000004 -0.9,-0.554 c-0.3460000000000001,-0.138 -0.8300000000000001,-0.20700000000000002 -1.453,-0.20700000000000002 c-0.6230000000000001,0 -1.177,0.06900000000000002 -1.592,0.20700000000000002 c-0.41500000000000004,0.139 -0.7610000000000001,0.3460000000000001 -0.9690000000000001,0.6230000000000001 c-0.48400000000000004,0.48400000000000004 -0.6920000000000002,1.038 -0.6920000000000002,1.73 H0.8300000000000001 c0,-0.6920000000000002 0.139,-1.246 0.3460000000000001,-1.73 c0.20800000000000002,-0.48400000000000004 0.48500000000000004,-0.9 0.9,-1.315 a5.08,5.08 0 0 1 1.8690000000000002,-1.176 a7.239,7.239 0 0 1 2.491,-0.41600000000000004 c1.3840000000000001,0 2.491,0.277 3.322,0.7620000000000001 c0.8300000000000001,0.553 1.3840000000000001,1.176 1.73,2.007 c0.277,0.6920000000000002 0.41500000000000004,1.3840000000000001 0.41500000000000004,2.214 v6.99 c0,0.3460000000000001 0.07,0.6230000000000001 0.20800000000000002,0.7610000000000001 a0.786,0.786 0 0 0 0.553,0.20800000000000002 h0.41600000000000004 l0.20700000000000002,-0.07 v1.8690000000000002 zM9.55,112.3880029296875 l-3.806,0.20700000000000002 c-0.3460000000000001,0 -0.6920000000000002,0.07 -1.107,0.20800000000000002 c-0.3460000000000001,0.138 -0.6920000000000002,0.277 -1.038,0.48400000000000004 a3.966,3.966 0 0 0 -0.7620000000000001,0.7620000000000001 c-0.20700000000000002,0.3460000000000001 -0.276,0.6920000000000002 -0.276,1.176 c0,0.6230000000000001 0.20700000000000002,1.246 0.6220000000000001,1.73 c0.41600000000000004,0.48500000000000004 1.177,0.7610000000000001 2.146,0.7610000000000001 a4.29,4.29 0 0 0 1.5910000000000002,-0.276 c0.48500000000000004,-0.20800000000000002 0.97,-0.48500000000000004 1.315,-0.9 c0.41600000000000004,-0.41500000000000004 0.7620000000000001,-0.9690000000000001 0.9,-1.5230000000000001 c0.20800000000000002,-0.553 0.277,-1.176 0.277,-1.73 v-0.9 h0.138 zm101.315,2.145 c-0.07,0.7610000000000001 -0.20800000000000002,1.453 -0.48400000000000004,2.076 a6.3100000000000005,6.3100000000000005 0 0 1 -1.177,1.592 c-0.48400000000000004,0.48400000000000004 -1.107,0.9 -1.8,1.176 c-0.6910000000000002,0.277 -1.452,0.41600000000000004 -2.352,0.41600000000000004 c-1.315,0 -2.353,-0.277 -3.183,-0.7620000000000001 c-0.8300000000000001,-0.553 -1.5230000000000001,-1.176 -2.007,-1.937 a7.212,7.212 0 0 1 -0.9,-2.077 c-0.20800000000000002,-0.8300000000000001 -0.277,-1.73 -0.277,-2.837 c0,-1.107 0.07,-2.007 0.277,-2.837 c0.20800000000000002,-0.8300000000000001 0.48400000000000004,-1.454 0.9,-2.076 c0.48400000000000004,-0.7620000000000001 1.176,-1.385 2.007,-1.9380000000000002 c0.8300000000000001,-0.554 1.868,-0.7610000000000001 3.183,-0.7610000000000001 c0.8300000000000001,0 1.592,0.138 2.284,0.41500000000000004 c0.6920000000000002,0.277 1.245,0.6230000000000001 1.73,1.107 a6.3100000000000005,6.3100000000000005 0 0 1 1.176,1.592 c0.277,0.6230000000000001 0.48500000000000004,1.315 0.554,2.076 h-2.422 c-0.07,-0.48400000000000004 -0.20800000000000002,-0.9 -0.3460000000000001,-1.315 c-0.20800000000000002,-0.3460000000000001 -0.41600000000000004,-0.6920000000000002 -0.6920000000000002,-0.9690000000000001 a2.606,2.606 0 0 0 -1.038,-0.6230000000000001 a4.03,4.03 0 0 0 -1.315,-0.20700000000000002 c-0.554,0 -1.038,0.06900000000000002 -1.3840000000000001,0.277 c-0.41600000000000004,0.20700000000000002 -0.7620000000000001,0.41500000000000004 -1.038,0.6920000000000002 a3.428,3.428 0 0 0 -1.108,1.937 c-0.20700000000000002,0.8300000000000001 -0.277,1.661 -0.277,2.56 c0,0.9 0.07,1.731 0.277,2.561 c0.20800000000000002,0.8300000000000001 0.554,1.454 1.108,1.9380000000000002 c0.3460000000000001,0.277 0.6920000000000002,0.48500000000000004 1.038,0.6920000000000002 c0.41500000000000004,0.20800000000000002 0.8300000000000001,0.277 1.3840000000000001,0.277 c0.48400000000000004,0 0.9690000000000001,-0.07 1.3840000000000001,-0.277 c0.41500000000000004,-0.20700000000000002 0.7610000000000001,-0.41500000000000004 1.038,-0.6920000000000002 c0.277,-0.277 0.48400000000000004,-0.553 0.6230000000000001,-0.9 c0.138,-0.3460000000000001 0.276,-0.7600000000000001 0.3460000000000001,-1.245 h2.491 v0.06900000000000002 zm13.149000000000001,-2.353 c0,1.107 -0.139,2.215 -0.41500000000000004,3.183 c-0.277,1.039 -0.8300000000000001,1.8690000000000002 -1.592,2.7 c-0.554,0.48400000000000004 -1.177,0.9 -1.8690000000000002,1.245 a6.5600000000000005,6.5600000000000005 0 0 1 -2.422,0.48500000000000004 c-0.9,0 -1.73,-0.139 -2.422,-0.48500000000000004 a5.53,5.53 0 0 1 -1.868,-1.246 c-0.7620000000000001,-0.7600000000000001 -1.315,-1.6600000000000001 -1.592,-2.6990000000000003 a12.173,12.173 0 0 1 -0.41500000000000004,-3.183 c0,-1.107 0.138,-2.214 0.41500000000000004,-3.183 c0.277,-1.038 0.8300000000000001,-1.8690000000000002 1.592,-2.7 a8.793,8.793 0 0 1 1.868,-1.245 a6.5600000000000005,6.5600000000000005 0 0 1 2.422,-0.48400000000000004 c0.9,0 1.73,0.138 2.422,0.48400000000000004 a5.53,5.53 0 0 1 1.8690000000000002,1.246 c0.7610000000000001,0.7610000000000001 1.315,1.6600000000000001 1.592,2.6990000000000003 c0.276,0.9690000000000001 0.41500000000000004,2.007 0.41500000000000004,3.183 zm-2.422,0 c0,-0.8300000000000001 -0.07,-1.6600000000000001 -0.277,-2.491 a4.625,4.625 0 0 0 -1.038,-2.007 c-0.277,-0.277 -0.6920000000000002,-0.554 -1.107,-0.7610000000000001 c-0.41600000000000004,-0.20800000000000002 -0.9,-0.277 -1.454,-0.277 c-0.553,0 -1.038,0.06900000000000002 -1.453,0.277 c-0.41500000000000004,0.20700000000000002 -0.7610000000000001,0.41500000000000004 -1.107,0.7600000000000001 a4.625,4.625 0 0 0 -1.038,2.008 c-0.20800000000000002,0.8300000000000001 -0.277,1.5910000000000002 -0.277,2.491 c0,0.8300000000000001 0.06900000000000002,1.661 0.277,2.491 c0.20700000000000002,0.8300000000000001 0.553,1.454 1.038,2.007 c0.277,0.277 0.6920000000000002,0.554 1.107,0.7620000000000001 c0.41500000000000004,0.20700000000000002 0.9,0.276 1.453,0.276 c0.554,0 1.038,-0.06900000000000002 1.454,-0.276 c0.41500000000000004,-0.20800000000000002 0.7600000000000001,-0.41600000000000004 1.107,-0.7620000000000001 a4.625,4.625 0 0 0 1.038,-2.007 c0.20700000000000002,-0.8300000000000001 0.277,-1.6600000000000001 0.277,-2.49 zm21.66,7.197 v-9.135 c0,-0.48400000000000004 -0.06900000000000002,-0.9680000000000001 -0.138,-1.3840000000000001 c-0.06900000000000002,-0.41500000000000004 -0.277,-0.7610000000000001 -0.48400000000000004,-1.038 c-0.20800000000000002,-0.277 -0.48500000000000004,-0.553 -0.9,-0.6920000000000002 a3.765,3.765 0 0 0 -1.3840000000000001,-0.277 c-0.41500000000000004,0 -0.8300000000000001,0.07 -1.176,0.277 c-0.3460000000000001,0.139 -0.6920000000000002,0.41500000000000004 -0.97,0.6920000000000002 a3.529,3.529 0 0 0 -0.9680000000000001,1.8 a10.745000000000001,10.745000000000001 0 0 0 -0.20800000000000002,2.145 v7.682 h-2.422 v-9.135 c0,-0.48500000000000004 -0.07,-0.97 -0.138,-1.385 c-0.07,-0.41500000000000004 -0.20800000000000002,-0.7600000000000001 -0.48500000000000004,-1.038 c-0.20700000000000002,-0.276 -0.48400000000000004,-0.553 -0.9,-0.6920000000000002 a3.765,3.765 0 0 0 -1.383,-0.276 a3.15,3.15 0 0 0 -1.385,0.3460000000000001 c-0.41500000000000004,0.20700000000000002 -0.7600000000000001,0.553 -1.038,0.9 a4.396,4.396 0 0 0 -0.7600000000000001,1.73 a9.734,9.734 0 0 0 -0.20900000000000002,1.937 v7.682 h-2.352 V105.1210029296875 h2.076 l0.20700000000000002,2.076 c0.3460000000000001,-0.8300000000000001 0.9,-1.453 1.661,-1.799 c0.7610000000000001,-0.41500000000000004 1.5230000000000001,-0.6230000000000001 2.353,-0.6230000000000001 c1.038,0 1.9380000000000002,0.20800000000000002 2.7,0.6920000000000002 a4.589,4.589 0 0 1 1.59,2.007 c0.20800000000000002,-0.48400000000000004 0.41600000000000004,-0.8300000000000001 0.7620000000000001,-1.176 c0.277,-0.3460000000000001 0.6920000000000002,-0.6230000000000001 1.038,-0.8300000000000001 c0.41500000000000004,-0.20800000000000002 0.8300000000000001,-0.41600000000000004 1.246,-0.48500000000000004 c0.41500000000000004,-0.139 0.9,-0.139 1.315,-0.139 c1.5910000000000002,0 2.837,0.48500000000000004 3.598,1.454 c0.7620000000000001,0.9690000000000001 1.177,2.214 1.177,3.875 v9.481 h-2.422 V119.3780029296875 zm17.717,-7.197 a10.99,10.99 0 0 1 -0.554,3.46 c-0.3460000000000001,1.038 -0.9,1.9380000000000002 -1.5910000000000002,2.63 a6.738,6.738 0 0 1 -1.661,1.038 c-0.6230000000000001,0.277 -1.3840000000000001,0.41500000000000004 -2.215,0.41500000000000004 c-0.41500000000000004,0 -0.7610000000000001,-0.06900000000000002 -1.176,-0.138 c-0.41600000000000004,-0.07 -0.7620000000000001,-0.20800000000000002 -1.177,-0.41500000000000004 c-0.3460000000000001,-0.139 -0.6920000000000002,-0.41600000000000004 -1.038,-0.6230000000000001 c-0.277,-0.277 -0.554,-0.554 -0.7610000000000001,-0.9 v7.82 h-2.422 V104.9140029296875 h2.076 l0.138,1.868 c0.41500000000000004,-0.6920000000000002 1.038,-1.246 1.8,-1.6600000000000001 c0.8300000000000001,-0.41600000000000004 1.5910000000000002,-0.554 2.422,-0.554 c0.9,0 1.6600000000000001,0.138 2.353,0.41500000000000004 c0.6920000000000002,0.277 1.245,0.6920000000000002 1.73,1.176 c0.6920000000000002,0.6920000000000002 1.176,1.592 1.522,2.63 c0.3460000000000001,1.038 0.554,2.145 0.554,3.391 zm-2.422,0 c0,-0.6920000000000002 -0.07,-1.315 -0.20800000000000002,-2.007 a7.905,7.905 0 0 0 -0.6230000000000001,-1.8 c-0.277,-0.553 -0.6920000000000002,-0.9680000000000001 -1.245,-1.314 c-0.554,-0.3460000000000001 -1.177,-0.48400000000000004 -1.9380000000000002,-0.48400000000000004 c-0.554,0 -0.9690000000000001,0.06900000000000002 -1.315,0.276 c-0.3460000000000001,0.20800000000000002 -0.6920000000000002,0.41600000000000004 -0.9690000000000001,0.6920000000000002 c-0.6230000000000001,0.554 -1.038,1.177 -1.246,2.007 c-0.20700000000000002,0.8300000000000001 -0.3460000000000001,1.661 -0.3460000000000001,2.56 c0,0.9 0.139,1.8 0.3460000000000001,2.561 c0.20800000000000002,0.8300000000000001 0.6230000000000001,1.454 1.246,2.007 c0.277,0.277 0.6230000000000001,0.48500000000000004 0.9690000000000001,0.6920000000000002 c0.3460000000000001,0.20800000000000002 0.8300000000000001,0.277 1.315,0.277 c0.7610000000000001,0 1.453,-0.138 1.9380000000000002,-0.48400000000000004 c0.553,-0.3460000000000001 0.9680000000000001,-0.7610000000000001 1.245,-1.246 a6.889,6.889 0 0 0 0.6230000000000001,-1.8 a8.754,8.754 0 0 0 0.20800000000000002,-1.937 zm16.193,7.059 a3.373,3.373 0 0 1 -0.7600000000000001,0.277 c-0.278,0.06900000000000002 -0.48500000000000004,0.06900000000000002 -0.8310000000000001,0.06900000000000002 c-0.6230000000000001,0 -1.177,-0.20800000000000002 -1.5230000000000001,-0.6230000000000001 a2.418,2.418 0 0 1 -0.553,-1.522 h-0.07 a4.54,4.54 0 0 1 -1.868,1.73 c-0.8300000000000001,0.41500000000000004 -1.73,0.6230000000000001 -2.7680000000000002,0.6230000000000001 c-0.8300000000000001,0 -1.5230000000000001,-0.139 -2.146,-0.41600000000000004 a4.93,4.93 0 0 1 -1.522,-1.038 c-0.41500000000000004,-0.41500000000000004 -0.6920000000000002,-0.9 -0.9,-1.453 a4.29,4.29 0 0 1 -0.277,-1.592 c0,-0.48400000000000004 0.07,-0.9690000000000001 0.20800000000000002,-1.453 c0.139,-0.48400000000000004 0.41500000000000004,-0.9690000000000001 0.8300000000000001,-1.3840000000000001 c0.41600000000000004,-0.41500000000000004 0.9,-0.7610000000000001 1.5230000000000001,-1.107 c0.6230000000000001,-0.277 1.453,-0.48500000000000004 2.422,-0.554 l4.29,-0.277 v-1.038 c0,-0.3460000000000001 -0.06800000000000002,-0.7610000000000001 -0.138,-1.107 a1.6400000000000001,1.6400000000000001 0 0 0 -0.6220000000000001,-1.038 c-0.277,-0.20800000000000002 -0.554,-0.41500000000000004 -0.9,-0.554 c-0.3460000000000001,-0.138 -0.8300000000000001,-0.20700000000000002 -1.453,-0.20700000000000002 c-0.6230000000000001,0 -1.177,0.06900000000000002 -1.592,0.20700000000000002 c-0.41500000000000004,0.139 -0.7610000000000001,0.3460000000000001 -0.9690000000000001,0.6230000000000001 c-0.48400000000000004,0.48400000000000004 -0.6920000000000002,1.038 -0.6920000000000002,1.73 h-2.353 c0,-0.6920000000000002 0.139,-1.246 0.3460000000000001,-1.73 c0.20800000000000002,-0.48400000000000004 0.48500000000000004,-0.9 0.9,-1.315 a5.08,5.08 0 0 1 1.868,-1.176 a7.239,7.239 0 0 1 2.492,-0.41600000000000004 c1.3840000000000001,0 2.491,0.277 3.321,0.7620000000000001 c0.8300000000000001,0.553 1.385,1.176 1.73,2.007 c0.277,0.6920000000000002 0.41600000000000004,1.3840000000000001 0.41600000000000004,2.214 v6.99 c0,0.3460000000000001 0.06900000000000002,0.6230000000000001 0.20700000000000002,0.7610000000000001 a0.786,0.786 0 0 0 0.554,0.20800000000000002 h0.41500000000000004 l0.20800000000000002,-0.07 v1.8690000000000002 h0.20700000000000002 zm-3.737,-6.851 l-3.806,0.20700000000000002 c-0.3460000000000001,0 -0.6920000000000002,0.07 -1.107,0.20800000000000002 c-0.3460000000000001,0.138 -0.6920000000000002,0.277 -1.038,0.48400000000000004 a3.966,3.966 0 0 0 -0.7610000000000001,0.7620000000000001 c-0.20800000000000002,0.3460000000000001 -0.277,0.6920000000000002 -0.277,1.176 c0,0.6230000000000001 0.20700000000000002,1.246 0.6230000000000001,1.73 c0.41500000000000004,0.48500000000000004 1.176,0.7610000000000001 2.145,0.7610000000000001 a4.29,4.29 0 0 0 1.592,-0.276 c0.48400000000000004,-0.20800000000000002 0.9690000000000001,-0.48500000000000004 1.315,-0.9 c0.41500000000000004,-0.41500000000000004 0.7600000000000001,-0.9690000000000001 0.9,-1.5230000000000001 c0.20700000000000002,-0.553 0.276,-1.176 0.276,-1.73 v-0.9 h0.138 zm14.395,6.99 v-9.136 c0,-1.107 -0.20800000000000002,-1.937 -0.6920000000000002,-2.56 c-0.48500000000000004,-0.6230000000000001 -1.246,-0.9 -2.422,-0.9 c-0.6920000000000002,0 -1.315,0.20800000000000002 -1.8,0.6230000000000001 a4.001,4.001 0 0 0 -1.245,1.592 a3.831,3.831 0 0 0 -0.41500000000000004,1.799 c-0.07,0.6920000000000002 -0.07,1.315 -0.07,1.8690000000000002 v6.712 h-2.422 V104.9830029296875 h2.076 l0.20800000000000002,2.145 c0.20800000000000002,-0.41500000000000004 0.41500000000000004,-0.7610000000000001 0.7610000000000001,-1.107 c0.3460000000000001,-0.3460000000000001 0.6920000000000002,-0.554 1.038,-0.7610000000000001 c0.41500000000000004,-0.20800000000000002 0.8300000000000001,-0.3460000000000001 1.246,-0.48500000000000004 c0.41500000000000004,-0.138 0.8300000000000001,-0.138 1.246,-0.138 c1.6600000000000001,0 2.837,0.48400000000000004 3.6670000000000003,1.3840000000000001 c0.8300000000000001,0.9 1.246,2.214 1.246,3.875 V119.3780029296875 h-2.422 zm9.55,2.906 c-0.3460000000000001,0.9 -0.8300000000000001,1.6600000000000001 -1.3840000000000001,2.214 c-0.554,0.554 -1.3840000000000001,0.8300000000000001 -2.491,0.8300000000000001 c-0.6230000000000001,0 -1.108,-0.06800000000000002 -1.454,-0.138 c-0.3460000000000001,-0.06900000000000002 -0.6220000000000001,-0.138 -0.6920000000000002,-0.20700000000000002 V122.8380029296875 c0.139,0.06900000000000002 0.3460000000000001,0.06900000000000002 0.48500000000000004,0.138 c0.138,0.07 0.3460000000000001,0.07 0.553,0.07 h0.6920000000000002 a2.6500000000000004,2.6500000000000004 0 0 0 1.315,-0.3470000000000001 c0.3460000000000001,-0.20800000000000002 0.6230000000000001,-0.554 0.8300000000000001,-1.107 l0.9,-2.422 l-5.674,-14.395 h2.6990000000000003 l4.221,11.35 l4.014,-11.35 h2.491 l-6.505,17.509 z" id="svg_4" fill="#ffffff" fill-opacity="1"/></g><path d="M16.055 14.533v51.765H31.42c7.82 0 13.287-3.876 16.401-11.558 1.661-4.221 2.491-9.273 2.491-15.155 0-8.097-1.245-14.256-3.806-18.616-2.56-4.29-7.543-6.436-15.086-6.436H16.055zM46.436 2.56C52.042 4.36 56.54 7.75 59.931 12.595a35.985 35.985 0 0 1 5.675 12.803c.968 4.567 1.522 8.927 1.522 13.149 0 10.519-2.145 19.446-6.367 26.713-5.744 9.896-14.602 14.81-26.574 14.81H0V.83h34.187c4.913.07 8.996.623 12.249 1.73zm42.837 33.287c-2.145 2.145-3.53 5.12-4.083 8.858h26.298c-.277-3.945-1.661-6.99-4.083-9.066-2.422-2.076-5.467-3.114-9.066-3.114-3.875.07-6.92 1.107-9.066 3.322M112.18 22.56c4.083 1.799 7.474 4.705 10.104 8.65 2.422 3.46 3.944 7.543 4.636 12.11.416 2.7.623 6.506.485 11.627h-42.56c.276 5.952 2.283 10.035 6.09 12.457 2.352 1.453 5.12 2.214 8.373 2.214 3.46 0 6.298-.83 8.512-2.63 1.8-1.522 2.215-2.283 3.114-5.536h15.64c-.415 5.052-2.283 8.512-5.674 12.111-5.26 5.675-12.526 8.512-22.007 8.512-7.751 0-14.672-2.422-20.554-7.197-5.951-4.775-8.927-12.664-8.927-23.46 0-10.173 2.63-17.924 8.027-23.391 5.398-5.398 12.388-8.097 20.9-8.097 5.121-.139 9.758.83 13.84 2.63m31.696 38.823c.346 2.699 1.038 4.637 2.077 5.813 1.937 2.007 5.467 3.045 10.588 3.045 3.045 0 5.398-.415 7.197-1.315 1.8-.9 2.699-2.214 2.699-4.014 0-1.73-.692-3.044-2.145-3.944-1.454-.9-6.782-2.422-15.987-4.637-6.643-1.66-11.349-3.737-14.048-6.159-2.768-2.422-4.083-5.952-4.083-10.519 0-5.398 2.145-10.035 6.367-13.98 4.221-3.875 10.242-5.812 17.924-5.812 7.266 0 13.218 1.453 17.854 4.36 4.637 2.906 7.267 7.958 7.959 15.155h-15.294c-.208-1.938-.762-3.53-1.661-4.706-1.73-2.076-4.568-3.114-8.65-3.114-3.323 0-5.745.485-7.198 1.592-1.384 1.038-2.145 2.214-2.145 3.668 0 1.799.761 3.045 2.283 3.806 1.523.83 6.852 2.214 15.987 4.221 6.09 1.454 10.726 3.599 13.702 6.505 3.045 2.907 4.498 6.575 4.498 11.004 0 5.813-2.145 10.519-6.436 14.187-4.36 3.668-11.003 5.467-20.069 5.467-9.204 0-15.986-1.938-20.415-5.813-4.36-3.876-6.575-8.858-6.575-14.81h15.571zm98.063 2.076c2.422-2.699 3.668-6.99 3.668-12.941 0-5.536-1.177-9.827-3.53-12.734-2.353-2.906-5.398-4.36-9.342-4.36-5.33 0-8.997 2.492-11.004 7.544-1.038 2.699-1.592 6.02-1.592 9.965 0 3.391.554 6.436 1.73 9.135 2.007 4.914 5.744 7.405 11.073 7.405 3.53.07 6.505-1.315 8.997-4.014m-5.19-42.076c3.736 1.523 6.712 4.36 8.996 8.443v-8.443h15.017v55.571c0 7.543-1.245 13.287-3.806 17.093-4.36 6.644-12.734 9.897-25.121 9.897-7.474 0-13.564-1.454-18.27-4.43-4.706-2.906-7.336-7.335-7.82-13.148h16.678c.415 1.8 1.107 3.045 2.076 3.875 1.661 1.384 4.43 2.076 8.305 2.076 5.467 0 9.204-1.868 11.072-5.536 1.246-2.353 1.869-6.298 1.869-11.834v-3.737c-1.453 2.491-3.045 4.36-4.775 5.606-3.045 2.353-6.99 3.46-11.834 3.46-7.543 0-13.495-2.63-17.993-7.89-4.498-5.259-6.713-12.456-6.713-21.453 0-8.72 2.145-15.986 6.505-21.937 4.29-5.952 10.45-8.859 18.34-8.859 2.768-.069 5.328.416 7.473 1.246m75.987 3.46c3.806 3.184 5.744 8.443 5.744 15.779V80h-15.71V44.43c0-3.046-.415-5.468-1.246-7.06-1.522-2.976-4.36-4.498-8.58-4.498-5.191 0-8.651 2.145-10.59 6.574-1.037 2.353-1.522 5.33-1.522 8.928v31.695h-15.294V21.522h14.74v8.582c1.939-3.045 3.807-5.19 5.537-6.505 3.114-2.353 7.128-3.53 11.972-3.53 6.229 0 11.142 1.592 14.949 4.775m11.349-2.837h15.571V80h-15.571V22.007zm15.502-7.474h-15.502V.415h15.502v14.118zm-154.118 7.474h15.502V80h-15.502V22.007zm15.502-7.474h-15.502V.415h15.502v14.118zm143.114 18.2V22.008h8.097V5.467h15.225v16.47h9.55v10.727h-9.55v31.073c0 2.422.346 3.875.9 4.498.622.623 2.49.9 5.605.9.484 0 .969 0 1.453-.07.485 0 1.038-.068 1.523-.138v11.488l-7.267.346c-7.266.208-12.18-.969-14.81-3.806-1.73-1.73-2.63-4.429-2.63-8.166V32.734h-8.096zm46.09-25.743c-.415-.139-1.038-.208-1.8-.208h-.691v3.391h1.176c.692 0 1.246-.138 1.661-.415.415-.277.623-.761.623-1.384 0-.692-.346-1.177-.969-1.384zm-5.536 9.342V4.706H390.31c.97.07 1.661.277 2.284.623 1.038.553 1.592 1.453 1.592 2.768 0 .969-.277 1.66-.83 2.076-.554.484-1.246.692-2.008.83.693.139 1.315.346 1.661.693.692.553 1.038 1.453 1.038 2.63v1.037c0 .07 0 .208.07.346 0 .139 0 .208.069.346l.138.346h-2.906c-.07-.346-.139-.9-.208-1.591 0-.692-.07-1.177-.208-1.454a1.248 1.248 0 0 0-.83-.83c-.277-.138-.554-.208-1.038-.208l-.623-.069h-.623v4.083h-3.252zM383.045 4.43c-1.66 1.73-2.491 3.737-2.491 6.09 0 2.422.83 4.498 2.56 6.228 1.661 1.73 3.737 2.561 6.09 2.561 2.422 0 4.43-.9 6.09-2.56 1.661-1.73 2.56-3.807 2.56-6.16s-.83-4.36-2.49-6.09c-1.662-1.73-3.738-2.63-6.16-2.63-2.422-.069-4.429.762-6.159 2.561zm13.495 13.633c-2.007 2.007-4.498 2.976-7.336 2.976-2.976 0-5.467-1.038-7.474-3.045-2.007-2.007-3.045-4.498-3.045-7.474 0-3.045 1.107-5.606 3.253-7.612 2.076-1.938 4.498-2.838 7.197-2.838 2.907 0 5.329 1.038 7.405 3.114 2.007 2.007 3.114 4.499 3.114 7.405.07 2.907-.969 5.398-3.114 7.474z" id="svg_5" fill="#ffffff" fill-opacity="1"/></g></g></svg>